<?xml version="1.0" encoding="UTF-8"?>
<svg width="12px" height="11px" viewBox="0 0 12 11" version="1.1" xmlns="http://www.w3.org/2000/svg" xmlns:xlink="http://www.w3.org/1999/xlink">
    <title>Fill 4</title>
    <g id="Page-1" stroke="none" stroke-width="1" fill="none" fill-rule="evenodd">
        <g id="09-Blog-Listing" transform="translate(-493.000000, -4649.000000)" fill="#FFFFFF">
            <path d="M504.849212,4651.04707 C504.488497,4651.21064 504.091355,4651.30957 503.701712,4651.37493 C503.886712,4651.34386 504.158855,4651.00921 504.26814,4650.87386 C504.434212,4650.66743 504.572783,4650.43207 504.650283,4650.17779 C504.660283,4650.15814 504.667783,4650.13314 504.64814,4650.11814 C504.622783,4650.10814 504.606712,4650.11314 504.587069,4650.12314 C504.152426,4650.356 503.702426,4650.52529 503.223855,4650.64493 C503.184212,4650.65457 503.154926,4650.64493 503.129926,4650.61993 C503.090283,4650.57529 503.05314,4650.53314 503.010997,4650.49814 C502.809569,4650.32671 502.593855,4650.19243 502.350283,4650.0935 C502.03064,4649.96314 501.681712,4649.90814 501.337783,4649.93029 C501.002783,4649.95207 500.674212,4650.04636 500.377069,4650.20171 C500.079212,4650.35743 499.81314,4650.57386 499.601712,4650.83493 C499.382426,4651.10493 499.221355,4651.42386 499.138855,4651.76207 C499.058855,4652.0885 499.06564,4652.411 499.113855,4652.741 C499.121355,4652.79564 499.116712,4652.80314 499.067069,4652.79564 C497.194569,4652.51707 495.642783,4651.84707 494.382783,4650.41136 C494.32814,4650.34886 494.298497,4650.34886 494.253497,4650.416 C493.702426,4651.24243 493.969926,4652.57029 494.658497,4653.22279 C494.750283,4653.30957 494.844569,4653.39671 494.946355,4653.476 C494.909212,4653.4835 494.450997,4653.43386 494.042426,4653.22279 C493.987783,4653.18814 493.960283,4653.20779 493.95564,4653.26993 C493.950283,4653.35921 493.95814,4653.44136 493.970283,4653.5385 C494.075997,4654.376 494.656355,4655.151 495.450997,4655.45314 C495.544926,4655.49279 495.649212,4655.52779 495.750997,4655.54493 C495.570283,4655.58457 495.383497,4655.61314 494.864569,4655.57243 C494.799926,4655.55993 494.775283,4655.59243 494.799926,4655.65421 C495.189926,4656.71743 496.032069,4657.03386 496.662426,4657.21421 C496.747069,4657.22886 496.831712,4657.22886 496.915997,4657.24886 C496.910997,4657.25636 496.905997,4657.25636 496.900997,4657.26386 C496.692069,4657.58243 495.966712,4657.81993 495.629212,4657.93779 C495.014926,4658.15279 494.346355,4658.24921 493.697069,4658.18529 C493.59314,4658.16993 493.571355,4658.171 493.543497,4658.18529 C493.514926,4658.20279 493.539569,4658.22743 493.57314,4658.25457 C493.704926,4658.34171 493.838855,4658.41886 493.97564,4658.49314 C494.387783,4658.71171 494.817426,4658.88564 495.266712,4659.00957 C497.587783,4659.65064 500.202069,4659.17957 501.944569,4657.44814 C503.31314,4656.0885 503.792783,4654.2135 503.792783,4652.336 C503.792783,4652.26243 503.879569,4652.22207 503.931355,4652.18314 C504.287426,4651.91564 504.570283,4651.59564 504.835997,4651.23814 C504.89564,4651.15779 504.891794,4651.08636 504.891794,4651.05707 L504.891794,4651.04707 C504.891794,4651.01707 504.89564,4651.026 504.849212,4651.04707" id="Fill-4"></path>
        </g>
    </g>
</svg>