<?xml version="1.0" encoding="UTF-8"?>
<svg width="11px" height="11px" viewBox="0 0 11 11" version="1.1" xmlns="http://www.w3.org/2000/svg" xmlns:xlink="http://www.w3.org/1999/xlink">
    <title>Group 13</title>
    <g id="Page-1" stroke="none" stroke-width="1" fill="none" fill-rule="evenodd">
        <g id="09-Blog-Listing" transform="translate(-545.000000, -4648.000000)" fill="#FFFFFF" fill-rule="nonzero">
            <g id="Group-13" transform="translate(545.500000, 4648.500000)">
                <path d="M2.36011126,9.41570681 C2.36011126,9.59744764 2.2127945,9.7447644 2.03105366,9.7447644 L0.63033377,9.7447644 C0.448592932,9.7447644 0.301276178,9.59744764 0.301276178,9.41570681 L0.301276178,3.54394634 C0.301276178,3.3622055 0.448592932,3.21488874 0.63033377,3.21488874 L2.03105366,3.21488874 C2.2127945,3.21488874 2.36011126,3.3622055 2.36011126,3.54394634 L2.36011126,9.41570681 Z" id="Path"></path>
                <path d="M1.33069372,2.66138743 C0.595778796,2.66138743 -5.99520433e-14,2.06560864 -5.99520433e-14,1.33069372 C-5.99520433e-14,0.595778796 0.595778796,-6.01370805e-14 1.33069372,-6.01370805e-14 C2.06560864,-6.01370805e-14 2.66138743,0.595778796 2.66138743,1.33069372 C2.66138743,2.06560864 2.06564136,2.66138743 1.33069372,2.66138743 Z" id="Path"></path>
                <path d="M9.68023649,9.44221204 C9.68023649,9.60929319 9.5447644,9.7447644 9.37768325,9.7447644 L7.87460733,9.7447644 C7.70752618,9.7447644 7.57205497,9.60929319 7.57205497,9.44221204 L7.57205497,6.68802356 C7.57205497,6.27715969 7.69257199,4.88759817 6.49833115,4.88759817 C5.57198953,4.88759817 5.38409686,5.83871073 5.3463678,6.26554319 L5.3463678,9.44221204 C5.3463678,9.60929319 5.21092932,9.7447644 5.04381545,9.7447644 L3.59008508,9.7447644 C3.42300393,9.7447644 3.28753272,9.60929319 3.28753272,9.44221204 L3.28753272,3.5174411 C3.28753272,3.35035995 3.42300393,3.21488874 3.59008508,3.21488874 L5.04381545,3.21488874 C5.2108966,3.21488874 5.3463678,3.35035995 5.3463678,3.5174411 L5.3463678,4.02971204 C5.68985602,3.51423429 6.20032723,3.11636126 7.2872055,3.11636126 C9.69401178,3.11636126 9.68023649,5.36492147 9.68023649,6.60039267 L9.68023649,9.44221204 L9.68023649,9.44221204 Z" id="Path"></path>
            </g>
        </g>
    </g>
</svg>